# xmcd
#
# Track frame offsets:
#	150
#	17927
#	31876
#	48211
#	66541
#	82029
#	101500
#	113597
#	128673
#	145610
#	162447
#	180142
#	196406
#	209023
#	224065
#	241482
#	254073
#	272722
#	292358
#	303692
#	317551
#	333544
#
# Disc length: 4584 seconds
#
# Revision: 1
# Processed by: cddbd v1.5.2PL0 Copyright (c) Steve Scherf et al.
# Submitted via: audiograbber 1.83.01
#
DISCID=5a11e616
DTITLE=Western Heart - Western Heart 005 Western Heart
DYEAR=2000
DGENRE=Country
TTITLE0=She´s Leaving It On The Playgraund - Teresa
TTITLE1=Drinking My Thinkin - Brent Meyer
TTITLE2=Autum´s Not The Cold - Erin Hay
TTITLE3=I Can´t Go Back To Texas - Rick Robledo
TTITLE4=Sommthing Out There - Lisa Dodd
TTITLE5=My Secret Love - Dk Davis
TTITLE6=Setting The Woods On Fire - Megan Seehan
TTITLE7=Letter Edged In Black - Perley Curtis
TTITLE8=The Lucky Few - Richard Burr
TTITLE9=I Know You You´re A Heartache - Jamie Beaver
TTITLE10=Jesus It´s Me Again - Dick Damron
TTITLE11=You Changed The Locks - Brent Mcathey
TTITLE12=Two Timen´ Man - Jennifer Wall
TTITLE13=Spin The Bottle - Stevie Cee
TTITLE14=Thank You For Me - Sherley Fredrikson
TTITLE15=Different Situation - Dayron Sharp
TTITLE16=Miss You - Bente´ Boe
TTITLE17=Riders In The Sky - Tom Cunnigham
TTITLE18=Time To Hurt Again - Shiloh West
TTITLE19=Homegrown Tomatoes - Sylvia Winters
TTITLE20=If The Phone Don´t Ring - Erin Hay
TTITLE21=Suzanne - Mike Mcdonnald
EXTD=
EXTT0=
EXTT1=
EXTT2=
EXTT3=
EXTT4=
EXTT5=
EXTT6=
EXTT7=
EXTT8=
EXTT9=
EXTT10=
EXTT11=
EXTT12=
EXTT13=
EXTT14=
EXTT15=
EXTT16=
EXTT17=
EXTT18=
EXTT19=
EXTT20=
EXTT21=
PLAYORDER=
